<svg width="141" height="37" viewBox="0 0 141 37" fill="none" xmlns="http://www.w3.org/2000/svg">
<path d="M4.34177 27.6328C3.13474 27.6328 2.21481 27.4805 1.582 27.1758C0.960907 26.8711 0.539032 26.373 0.316376 25.6816C0.105438 24.9902 -3.05176e-05 24.0703 -3.05176e-05 22.9219V7.13672C-3.05176e-05 5.96484 0.105438 5.03906 0.316376 4.35938C0.539032 3.66797 0.960907 3.17578 1.582 2.88281C2.21481 2.57813 3.13474 2.42578 4.34177 2.42578H9.73825C12.2578 2.42578 14.4609 2.80078 16.3476 3.55078C18.2461 4.30078 19.7226 5.57227 20.7773 7.36523C21.832 9.14648 22.3593 11.5957 22.3593 14.7129C22.3593 17.8301 21.832 20.3379 20.7773 22.2363C19.7226 24.123 18.2461 25.4941 16.3476 26.3496C14.4609 27.2051 12.2578 27.6328 9.73825 27.6328H4.34177ZM7.68161 7.04883C6.90817 7.04883 6.38083 7.21289 6.09958 7.54102C5.81833 7.86914 5.6777 8.43164 5.6777 9.22852V20.8301C5.6777 21.6152 5.81833 22.1777 6.09958 22.5176C6.38083 22.8574 6.90817 23.0273 7.68161 23.0273H8.4902C10.998 23.0273 12.9375 22.4121 14.3086 21.1816C15.6914 19.9512 16.3828 17.8184 16.3828 14.7832C16.3828 12.7559 16.0664 11.1855 15.4336 10.0723C14.8125 8.94727 13.9101 8.16211 12.7265 7.7168C11.5429 7.27148 10.1191 7.04883 8.45505 7.04883H7.68161ZM29.5411 28.0723C27.8184 28.0723 26.4473 27.5918 25.4278 26.6309C24.42 25.6582 23.9161 24.3223 23.9161 22.623C23.9161 21.7441 24.0743 20.9297 24.3907 20.1797C24.7188 19.418 25.2813 18.75 26.0782 18.1758C26.8868 17.5898 28.0118 17.1211 29.4532 16.7695C30.9063 16.418 32.7579 16.2129 35.0079 16.1543C35.0079 15.0879 34.7383 14.3203 34.1993 13.8516C33.6719 13.3828 32.875 13.1484 31.8086 13.1484C30.8477 13.1484 30.0625 13.3125 29.4532 13.6406C28.8438 13.9688 28.4629 14.1914 28.3106 14.3086C28.1465 14.4492 27.9473 14.502 27.7129 14.4668C27.3965 14.4199 27.0567 14.3379 26.6934 14.2207C26.3418 14.1035 25.961 13.9688 25.5508 13.8164C25.4922 13.793 25.4278 13.7578 25.3575 13.7109C25.2872 13.6523 25.2461 13.5703 25.2344 13.4648C25.2344 13.4062 25.2403 13.3359 25.252 13.2539C25.2637 13.1602 25.293 12.9961 25.3399 12.7617C25.3868 12.5273 25.4571 12.2402 25.5508 11.9004C25.6446 11.5488 25.7325 11.2793 25.8145 11.0918C25.92 10.8926 26.0958 10.7051 26.3418 10.5293C26.5411 10.3652 27.1446 10.1016 28.1524 9.73828C29.1602 9.375 30.6192 9.19336 32.5293 9.19336C37.7911 9.19336 40.4219 11.7539 40.4219 16.875V26.8242C40.4219 27.0469 40.3575 27.2402 40.2286 27.4043C40.1114 27.5566 39.9063 27.6328 39.6133 27.6328H36.9766C36.7891 27.6328 36.6192 27.6094 36.4668 27.5625C36.3262 27.5039 36.1915 27.3984 36.0625 27.2461L34.9727 25.8398H34.8497C34.3106 26.625 33.584 27.1934 32.67 27.5449C31.7676 27.8965 30.7247 28.0723 29.5411 28.0723ZM31.4747 23.9941C32.5528 23.9941 33.3672 23.7188 33.918 23.168C34.4688 22.6172 34.8204 22.0488 34.9727 21.4629V19.5117C33.3438 19.5117 32.1192 19.6406 31.2989 19.8984C30.4903 20.1445 29.9512 20.4727 29.6817 20.8828C29.4122 21.2812 29.2774 21.7148 29.2774 22.1836C29.2774 22.8633 29.4883 23.3379 29.9102 23.6074C30.3321 23.8652 30.8536 23.9941 31.4747 23.9941ZM43.2794 3.72656C43.2794 3.57422 43.3263 3.43945 43.42 3.32227C43.5138 3.20508 43.6368 3.05273 43.7892 2.86523C44.1173 2.49023 44.4982 2.09766 44.9318 1.6875C45.3654 1.26562 45.8048 0.861328 46.2501 0.474609C46.5314 0.251953 46.7423 0.140625 46.8829 0.140625C47.0236 0.140625 47.2404 0.251953 47.5333 0.474609C48.4825 1.29492 49.2911 2.0918 49.9591 2.86523C50.1115 3.04102 50.2345 3.19336 50.3283 3.32227C50.4337 3.43945 50.4865 3.57422 50.4865 3.72656C50.4865 3.87891 50.4337 4.01367 50.3283 4.13086C50.2345 4.24805 50.1056 4.40625 49.9415 4.60547C49.6251 4.96875 49.256 5.36133 48.8341 5.7832C48.4122 6.19336 47.9786 6.58594 47.5333 6.96094C47.3693 7.10156 47.2404 7.19531 47.1466 7.24219C47.0529 7.27734 46.965 7.29492 46.8829 7.29492C46.8009 7.29492 46.713 7.27734 46.6193 7.24219C46.5372 7.19531 46.4025 7.10156 46.215 6.96094C45.7462 6.58594 45.3068 6.19336 44.8966 5.7832C44.4865 5.36133 44.1173 4.95703 43.7892 4.57031C43.6368 4.38281 43.5138 4.23633 43.42 4.13086C43.3263 4.01367 43.2794 3.87891 43.2794 3.72656ZM49.6427 26.7012C49.6427 27.0527 49.5665 27.2988 49.4142 27.4395C49.2736 27.5684 49.0275 27.6328 48.6759 27.6328H45.0548C44.7033 27.6328 44.4513 27.5684 44.299 27.4395C44.1583 27.2988 44.088 27.0527 44.088 26.7012V10.5645C44.088 10.2129 44.1583 9.97266 44.299 9.84375C44.4513 9.70312 44.7033 9.63281 45.0548 9.63281H48.6759C49.0275 9.63281 49.2736 9.70312 49.4142 9.84375C49.5665 9.97266 49.6427 10.2129 49.6427 10.5645V26.7012ZM55.6467 28.002C55.4006 28.1074 55.2248 28.1602 55.1193 28.1602C55.0139 28.1602 54.9025 28.1191 54.7854 28.0371C54.5158 27.8496 54.2053 27.3926 53.8537 26.666C53.5139 25.9277 53.344 24.7969 53.344 23.2734V2.91797C53.344 2.63672 53.4025 2.41992 53.5197 2.26758C54.0119 1.62305 54.7326 0.925781 55.6818 0.175781C55.8459 0.0585937 55.9924 0 56.1213 0C56.2736 0 56.4201 0.0585937 56.5607 0.175781C57.0647 0.5625 57.4865 0.925781 57.8264 1.26562C58.1779 1.60547 58.4768 1.93945 58.7229 2.26758C58.84 2.41992 58.8986 2.63672 58.8986 2.91797V22.2012C58.8986 22.9746 58.9631 23.6367 59.092 24.1875C59.2209 24.7266 59.3732 25.1602 59.549 25.4883C59.7482 25.875 59.6721 26.1504 59.3205 26.3145L55.6467 28.002ZM63.1975 36.0879C62.764 36.0879 62.4358 36.041 62.2132 35.9473C61.9905 35.8652 61.803 35.7598 61.6507 35.6309C61.346 35.3379 61.0179 34.9277 60.6663 34.4004C60.5843 34.2715 60.4964 34.1191 60.4026 33.9434C60.3089 33.7793 60.262 33.6387 60.262 33.5215C60.262 33.3926 60.2913 33.2754 60.3499 33.1699C60.4085 33.0645 60.4788 32.9648 60.5608 32.8711C60.7483 32.625 60.9768 32.3672 61.2464 32.0977C61.5159 31.8398 61.7444 31.6348 61.9319 31.4824C62.0608 31.377 62.1663 31.3066 62.2483 31.2715C62.3304 31.248 62.4007 31.2363 62.4593 31.2363C62.5179 31.2363 62.6058 31.248 62.7229 31.2715C62.8401 31.2949 63.0159 31.3066 63.2503 31.3066C64.0589 31.3066 64.9026 31.043 65.7815 30.5156C66.6604 29.9883 67.5276 28.998 68.3831 27.5449C67.4925 26.7246 66.6136 25.6992 65.7464 24.4688C64.8909 23.2266 64.1175 21.8848 63.4261 20.4434C62.7347 18.9902 62.178 17.543 61.7561 16.1016C61.346 14.6602 61.1409 13.3301 61.1409 12.1113C61.1409 11.8535 61.2054 11.6484 61.3343 11.4961C61.8733 10.8281 62.6409 10.1309 63.637 9.4043C63.8128 9.28711 63.971 9.22852 64.1116 9.22852C64.264 9.22852 64.4222 9.28711 64.5862 9.4043C65.1253 9.79102 65.5765 10.1543 65.9397 10.4941C66.3147 10.834 66.6311 11.168 66.889 11.4961C67.0179 11.6484 67.0823 11.8652 67.0823 12.1465V12.0762C67.0823 13.002 67.1936 13.9805 67.4163 15.0117C67.639 16.043 67.9436 17.0508 68.3304 18.0352C68.7171 19.0078 69.1507 19.8926 69.6311 20.6895C70.1116 21.4746 70.6097 22.1016 71.1253 22.5703H71.2132C71.4475 22.125 71.7054 21.4863 71.9866 20.6543C72.2796 19.8105 72.555 18.8789 72.8128 17.8594C73.0706 16.8281 73.2815 15.8086 73.4456 14.8008C73.6097 13.7812 73.6917 12.8789 73.6917 12.0938V12.1465C73.6917 11.8652 73.7503 11.6484 73.8675 11.4961C74.137 11.168 74.4534 10.834 74.8167 10.4941C75.18 10.1543 75.6194 9.79102 76.135 9.4043C76.2991 9.28711 76.4515 9.22852 76.5921 9.22852C76.7561 9.22852 76.9085 9.28711 77.0491 9.4043C77.5765 9.79102 78.0218 10.1543 78.385 10.4941C78.7483 10.834 79.0589 11.168 79.3167 11.4961C79.4339 11.6484 79.4925 11.8594 79.4925 12.1289C79.4808 13.1953 79.2757 14.5898 78.8772 16.3125C78.4788 18.0234 77.8987 19.8809 77.137 21.8848C76.3753 23.8887 75.4495 25.8516 74.3597 27.7734C72.7308 30.668 70.9729 32.7773 69.0862 34.1016C67.1995 35.4258 65.2366 36.0879 63.1975 36.0879ZM79.4925 12.0938V12.1465V12.1289C79.4925 12.1172 79.4925 12.1055 79.4925 12.0938ZM61.1409 12.0938V12.1113V12.1465V12.0938ZM80.9261 23.748C80.9261 23.584 80.9789 23.4434 81.0843 23.3262C81.1898 23.1973 81.3246 23.0273 81.4886 22.8164C81.8519 22.4062 82.2679 21.9785 82.7367 21.5332C83.2172 21.0762 83.6976 20.6367 84.1781 20.2148C84.4828 19.9688 84.7113 19.8457 84.8636 19.8457C85.0043 19.8457 85.2386 19.9688 85.5668 20.2148C86.5863 21.082 87.4711 21.9492 88.2211 22.8164C88.3851 23.0156 88.5199 23.1797 88.6254 23.3086C88.7308 23.4375 88.7836 23.584 88.7836 23.748C88.7836 23.9121 88.725 24.0586 88.6078 24.1875C88.5023 24.3164 88.3675 24.4922 88.2035 24.7148C87.8519 25.1133 87.4418 25.5352 86.973 25.9805C86.516 26.4258 86.0472 26.8594 85.5668 27.2812C85.2621 27.5273 85.0277 27.6504 84.8636 27.6504C84.723 27.6504 84.4828 27.5273 84.1429 27.2812C83.6273 26.8594 83.1468 26.4258 82.7015 25.9805C82.2562 25.5234 81.8519 25.084 81.4886 24.6621C81.3246 24.4629 81.1898 24.3047 81.0843 24.1875C80.9789 24.0586 80.9261 23.9121 80.9261 23.748ZM80.9261 12.7969C80.9261 12.6328 80.9789 12.4922 81.0843 12.375C81.1898 12.2461 81.3246 12.0762 81.4886 11.8652C81.8519 11.4551 82.2679 11.0273 82.7367 10.582C83.2172 10.125 83.6976 9.68555 84.1781 9.26367C84.4828 9.01758 84.7113 8.89453 84.8636 8.89453C85.0043 8.89453 85.2386 9.01758 85.5668 9.26367C86.5863 10.1309 87.4711 10.998 88.2211 11.8652C88.3851 12.0645 88.5199 12.2285 88.6254 12.3574C88.7308 12.4863 88.7836 12.6328 88.7836 12.7969C88.7836 12.9609 88.725 13.1074 88.6078 13.2363C88.5023 13.3652 88.3675 13.541 88.2035 13.7637C87.8519 14.1621 87.4418 14.584 86.973 15.0293C86.516 15.4746 86.0472 15.9082 85.5668 16.3301C85.2621 16.5762 85.0277 16.6992 84.8636 16.6992C84.723 16.6992 84.4828 16.5762 84.1429 16.3301C83.6273 15.9082 83.1468 15.4746 82.7015 15.0293C82.2562 14.5723 81.8519 14.1328 81.4886 13.7109C81.3246 13.5117 81.1898 13.3535 81.0843 13.2363C80.9789 13.1074 80.9261 12.9609 80.9261 12.7969ZM96.018 27.6328C94.811 27.6328 93.8911 27.4805 93.2582 27.1758C92.6372 26.8711 92.2153 26.373 91.9926 25.6816C91.7817 24.9902 91.6762 24.0703 91.6762 22.9219V7.13672C91.6762 5.96484 91.7817 5.03906 91.9926 4.35938C92.2153 3.66797 92.6372 3.17578 93.2582 2.88281C93.8911 2.57813 94.811 2.42578 96.018 2.42578H101.414C103.934 2.42578 106.137 2.80078 108.024 3.55078C109.922 4.30078 111.399 5.57227 112.454 7.36523C113.508 9.14648 114.036 11.5957 114.036 14.7129C114.036 17.8301 113.508 20.3379 112.454 22.2363C111.399 24.123 109.922 25.4941 108.024 26.3496C106.137 27.2051 103.934 27.6328 101.414 27.6328H96.018ZM99.3579 7.04883C98.5844 7.04883 98.0571 7.21289 97.7758 7.54102C97.4946 7.86914 97.354 8.43164 97.354 9.22852V20.8301C97.354 21.6152 97.4946 22.1777 97.7758 22.5176C98.0571 22.8574 98.5844 23.0273 99.3579 23.0273H100.166C102.674 23.0273 104.614 22.4121 105.985 21.1816C107.368 19.9512 108.059 17.8184 108.059 14.7832C108.059 12.7559 107.743 11.1855 107.11 10.0723C106.489 8.94727 105.586 8.16211 104.403 7.7168C103.219 7.27148 101.795 7.04883 100.131 7.04883H99.3579ZM128.161 28.0723C125.723 28.0723 123.602 27.6035 121.797 26.666C119.993 25.7285 118.592 24.3164 117.596 22.4297C116.612 20.543 116.12 18.1875 116.12 15.3633C116.12 10.875 117.215 7.5293 119.407 5.32617C121.598 3.11133 124.651 2.00391 128.565 2.00391C132.233 2.00391 135.133 3.08789 137.266 5.25586C139.399 7.41211 140.465 10.6113 140.465 14.8535C140.465 17.8535 139.967 20.332 138.971 22.2891C137.975 24.2344 136.557 25.6875 134.717 26.6484C132.877 27.5977 130.692 28.0723 128.161 28.0723ZM128.266 23.3262C130.376 23.3262 131.94 22.5703 132.96 21.0586C133.979 19.5469 134.489 17.584 134.489 15.1699C134.489 12.3691 134.008 10.2656 133.047 8.85938C132.086 7.45312 130.54 6.75 128.407 6.75C124.2 6.75 122.096 9.52148 122.096 15.0645C122.096 17.5371 122.6 19.5352 123.608 21.0586C124.627 22.5703 126.18 23.3262 128.266 23.3262Z" fill="#333333"/>
</svg>
