<svg width="121" height="72" viewBox="0 0 121 72" fill="none" xmlns="http://www.w3.org/2000/svg">
<path d="M11.9904 67.4253C12.3074 67.4436 12.6315 67.4311 12.9592 67.3857L13.0561 68.0849C12.6824 68.1366 12.3123 68.1499 11.9494 68.129L11.9904 67.4253ZM14.3883 67.1876L14.4852 67.8868L13.0561 68.0849L12.9592 67.3857L14.3883 67.1876ZM20.1055 66.3951L20.2024 67.0943L17.3442 67.4905L17.2472 66.7913L20.1055 66.3951ZM25.8227 65.6026L25.9196 66.3018L23.0606 66.6981L22.9637 65.9989L25.8227 65.6026ZM31.5391 64.8103L31.6361 65.5095L28.7778 65.9057L28.6809 65.2065L31.5391 64.8103ZM37.2563 64.0178L37.3532 64.717L34.495 65.1132L34.3981 64.414L37.2563 64.0178ZM42.9735 63.2254L43.0704 63.9246L40.2115 64.3208L40.1145 63.6216L42.9735 63.2254ZM48.69 62.433L48.7869 63.1322L45.9286 63.5284L45.8317 62.8292L48.69 62.433ZM54.4071 61.6405L54.504 62.3397L51.6458 62.7359L51.5489 62.0367L54.4071 61.6405ZM60.1243 60.8481L60.2212 61.5473L57.3623 61.9436L57.2654 61.2444L60.1243 60.8481ZM65.8415 60.0556L65.9384 60.7548L63.0795 61.1511L62.9825 60.4519L65.8415 60.0556ZM71.5579 59.2633L71.6549 59.9625L68.7966 60.3586L68.6997 59.6594L71.5579 59.2633ZM77.2751 58.4708L77.372 59.17L74.5138 59.5662L74.4169 58.867L77.2751 58.4708ZM82.9923 57.6783L83.0892 58.3775L80.2303 58.7738L80.1334 58.0746L82.9923 57.6783ZM88.7088 56.886L88.8057 57.5852L85.9474 57.9814L85.8505 57.2822L88.7088 56.886ZM94.4259 56.0935L94.5229 56.7927L91.6646 57.1889L91.5677 56.4897L94.4259 56.0935ZM100.143 55.3011L100.24 56.0003L97.3811 56.3965L97.2842 55.6973L100.143 55.3011ZM105.86 54.5087L105.957 55.2079L103.098 55.6041L103.001 54.9049L105.86 54.5087ZM110.148 53.9143L110.245 54.6135L108.815 54.8116L108.719 54.1124L110.148 53.9143ZM111.321 54.3551C110.978 54.4738 110.618 54.5618 110.245 54.6135L110.148 53.9143C110.475 53.8689 110.791 53.7928 111.091 53.689L111.321 54.3551ZM8.58743 65.7744C9.01893 66.2588 9.5425 66.6549 10.126 66.9384L9.97095 67.2556L9.97173 67.2562L9.81725 67.5727C9.15082 67.2489 8.55302 66.7968 8.06021 66.2435L8.58743 65.7744ZM114.233 51.3291L114.551 51.4828C114.227 52.1493 113.775 52.747 113.221 53.2398L112.987 52.9772L112.752 52.7133C113.237 52.2818 113.633 51.7582 113.916 51.1747L114.233 51.3291ZM6.6872 63.2666L6.50246 61.9338L7.20165 61.8368L7.3864 63.1697C7.43183 63.4974 7.50795 63.8126 7.61176 64.1127L6.94496 64.343C6.82626 63.9997 6.73896 63.64 6.6872 63.2666ZM115.063 48.2446C115.115 48.6181 115.128 48.988 115.107 49.3506L114.403 49.3103C114.422 48.9933 114.409 48.6693 114.364 48.3415L114.179 47.0087L114.878 46.9118L115.063 48.2446ZM6.46267 56.5055L6.83216 59.1711L6.13296 59.2681L5.76347 56.6024L6.46267 56.5055ZM114.139 41.5804L114.509 44.2461L113.809 44.343L113.44 41.6773L114.139 41.5804ZM5.72368 51.1741L6.09318 53.8398L5.39398 53.9367L5.02449 51.271L5.72368 51.1741ZM113.4 36.249L113.77 38.9147L113.07 39.0116L112.701 36.3459L113.4 36.249ZM4.9847 45.8427L5.35419 48.5084L4.655 48.6053L4.2855 45.9396L4.9847 45.8427ZM112.661 30.9176L113.031 33.5833L112.331 33.6802L111.962 31.0146L112.661 30.9176ZM4.24572 40.5113L4.61521 43.177L3.91601 43.2739L3.54652 40.6082L4.24572 40.5113ZM111.922 25.5863L112.292 28.2519L111.592 28.3489L111.223 25.6832L111.922 25.5863ZM3.50673 35.1799L3.87622 37.8456L3.17703 37.9425L2.80753 35.2768L3.50673 35.1799ZM111.183 20.2549L111.553 22.9206L110.853 23.0175L110.484 20.3518L111.183 20.2549ZM2.76775 29.8486L3.13724 32.5142L2.43804 32.6112L2.06855 29.9455L2.76775 29.8486ZM110.444 14.9235L110.814 17.5892L110.114 17.6861L109.745 15.0204L110.444 14.9235ZM2.02876 24.5172L2.39826 27.1829L1.69906 27.2798L1.32957 24.6141L2.02876 24.5172ZM109.705 9.59211L110.075 12.2578L109.375 12.3547L109.006 9.68903L109.705 9.59211ZM0.775328 20.6156C0.723539 20.2419 0.709587 19.8718 0.73051 19.509L1.43489 19.5498C1.41662 19.8669 1.4291 20.1909 1.47453 20.5186L1.65927 21.8515L0.960074 21.9484L0.775328 20.6156ZM109.336 6.92642L108.636 7.02334L108.452 5.69049C108.406 5.36276 108.33 5.04756 108.226 4.74743L108.892 4.51662C109.011 4.8601 109.099 5.21991 109.151 5.59358L109.336 6.92642ZM2.75208 15.7728L3.08578 16.1469C2.60138 16.5784 2.20529 17.1019 1.9218 17.6855L1.28678 17.3768C1.61056 16.7104 2.06283 16.1126 2.61604 15.6197L2.75208 15.7728ZM106.02 1.28688C106.687 1.61061 107.284 2.06291 107.777 2.61613L107.251 3.08578C106.819 2.60138 106.296 2.20528 105.712 1.9218L105.931 1.47105L106.02 1.28688ZM7.0227 14.0486L7.11962 14.7478L5.6905 14.9458C5.36276 14.9913 5.04757 15.0674 4.74743 15.1712L4.51653 14.5045C4.77113 14.4164 5.03487 14.3459 5.30647 14.2941L5.59358 14.2466L7.0227 14.0486ZM103.071 0.742897C103.346 0.718884 103.619 0.715137 103.888 0.730603L103.848 1.43488C103.531 1.41661 103.207 1.4291 102.879 1.47452L101.45 1.67261L101.353 0.973417L102.782 0.775326L103.071 0.742897ZM12.7399 13.2561L12.8368 13.9553L9.97854 14.3515L9.88163 13.6523L12.7399 13.2561ZM18.457 12.4636L18.554 13.1628L15.695 13.5591L15.5981 12.8599L18.457 12.4636ZM24.1735 11.6713L24.2704 12.3705L21.4122 12.7667L21.3153 12.0675L24.1735 11.6713ZM29.8907 10.8788L29.9876 11.578L27.1294 11.9742L27.0324 11.275L29.8907 10.8788ZM35.6079 10.0864L35.7048 10.7856L32.8458 11.1818L32.7489 10.4826L35.6079 10.0864ZM41.3243 9.29399L41.4213 9.99319L38.563 10.3894L38.4661 9.69018L41.3243 9.29399ZM47.0415 8.50153L47.1384 9.20073L44.2802 9.59691L44.1833 8.89772L47.0415 8.50153ZM52.7587 7.70908L52.8556 8.40827L49.9967 8.80455L49.8998 8.10535L52.7587 7.70908ZM58.4758 6.91662L58.5728 7.61582L55.7138 8.01209L55.6169 7.31289L58.4758 6.91662ZM64.1923 6.12425L64.2892 6.82345L61.431 7.21963L61.3341 6.52044L64.1923 6.12425ZM69.9095 5.3318L70.0064 6.03099L67.1482 6.42718L67.0513 5.72798L69.9095 5.3318ZM75.6267 4.53934L75.7236 5.23854L72.8647 5.63481L72.7677 4.93561L75.6267 4.53934ZM81.3432 3.74697L81.4401 4.44617L78.5818 4.84235L78.4849 4.14316L81.3432 3.74697ZM87.0603 2.95452L87.1572 3.65371L84.299 4.0499L84.2021 3.3507L87.0603 2.95452ZM92.7775 2.16206L92.8744 2.86126L90.0155 3.25753L89.9186 2.55833L92.7775 2.16206ZM98.494 1.36969L98.5909 2.06889L95.7326 2.46507L95.6357 1.76588L98.494 1.36969Z" fill="#BBBBBB"/>
<path d="M14.8232 23.2942C14.8232 20.1754 17.3515 17.6471 20.4703 17.6471H115.059C118.177 17.6471 120.706 20.1754 120.706 23.2942V66.353C120.706 69.4718 118.177 72 115.059 72H20.4703C17.3515 72 14.8232 69.4718 14.8232 66.353V23.2942Z" fill="#EDEFF1"/>
<path d="M115.059 71.2942V72H20.4703V71.2942H115.059ZM120 66.353V23.2942C120 20.5652 117.787 18.353 115.059 18.353H20.4703C17.7414 18.353 15.5291 20.5652 15.5291 23.2942V66.353C15.5291 69.0819 17.7414 71.2941 20.4703 71.2942V72C17.3515 72 14.8232 69.4718 14.8232 66.353V23.2942C14.8232 20.1754 17.3515 17.6471 20.4703 17.6471H115.059L115.349 17.6547C118.333 17.8061 120.706 20.2729 120.706 23.2942V66.353C120.706 69.3742 118.333 71.841 115.349 71.9924L115.059 72V71.2942C117.787 71.2942 120 69.0819 120 66.353Z" fill="#EDEFF1"/>
<path d="M22.5879 28.2353C22.5879 26.6759 23.852 25.4117 25.4114 25.4117H59.2938C60.8532 25.4117 62.1173 26.6759 62.1173 28.2353V62.1176C62.1173 63.677 60.8532 64.9411 59.2938 64.9411H25.4114C23.852 64.9411 22.5879 63.677 22.5879 62.1176V28.2353Z" fill="white"/>
<path d="M24.6008 64.0746C24.8495 64.1778 25.123 64.2353 25.4114 64.2353V64.9411C25.0284 64.9411 24.6635 64.8642 24.3305 64.7261L24.6008 64.0746ZM26.8232 64.2353V64.9411H25.4114V64.2353H26.8232ZM32.4702 64.2353V64.9411H29.6467V64.2353H32.4702ZM38.1173 64.2353V64.9411H35.2938V64.2353H38.1173ZM43.7644 64.2353V64.9411H40.9408V64.2353H43.7644ZM49.4114 64.2353V64.9411H46.5879V64.2353H49.4114ZM55.0585 64.2353V64.9411H52.2349V64.2353H55.0585ZM59.2938 64.2353V64.9411H57.882V64.2353H59.2938ZM60.374 64.7261C60.0835 64.8465 59.769 64.921 59.4392 64.9377L59.2938 64.9411V64.2353C59.5822 64.2353 59.8557 64.1778 60.1044 64.0746L60.374 64.7261ZM22.5879 62.1176V60.7059H23.2938V62.1176C23.2938 62.4061 23.3513 62.6796 23.4544 62.9283L22.8023 63.1978C22.6819 62.9074 22.6081 62.5928 22.5913 62.2631L22.5879 62.1176ZM62.1138 62.2631C62.0971 62.5929 62.0226 62.9074 61.9022 63.1978L61.2508 62.9283C61.3539 62.6796 61.4114 62.4061 61.4114 62.1176V60.7059H62.1173V62.1176L62.1138 62.2631ZM23.2938 55.0588V57.8823H22.5879V55.0588H23.2938ZM62.1173 55.0588V57.8823H61.4114V55.0588H62.1173ZM23.2938 49.4117V52.2353H22.5879V49.4117H23.2938ZM62.1173 49.4117V52.2353H61.4114V49.4117H62.1173ZM23.2938 43.7647V46.5882H22.5879V43.7647H23.2938ZM62.1173 43.7647V46.5882H61.4114V43.7647H62.1173ZM23.2938 38.1176V40.9412H22.5879V38.1176H23.2938ZM62.1173 38.1176V40.9412H61.4114V38.1176H62.1173ZM23.2938 32.4706V35.2941H22.5879V32.4706H23.2938ZM62.1173 32.4706V35.2941H61.4114V32.4706H62.1173ZM22.5879 28.2353C22.5879 27.8524 22.6642 27.4873 22.8023 27.1544L23.4544 27.4246C23.3513 27.6733 23.2938 27.9468 23.2938 28.2353V29.647H22.5879V28.2353ZM62.1173 29.647H61.4114V28.2353C61.4114 27.9468 61.3539 27.6733 61.2508 27.4246L61.9022 27.1544C62.0404 27.4874 62.1173 27.8523 62.1173 28.2353V29.647ZM26.8232 25.4117V26.1176H25.4114C25.123 26.1176 24.8495 26.1751 24.6008 26.2782L24.3305 25.6261C24.6635 25.488 25.0285 25.4117 25.4114 25.4117H26.8232ZM59.4392 25.4152C59.7689 25.4319 60.0836 25.5058 60.374 25.6261L60.1044 26.2782C59.8557 26.1751 59.5822 26.1176 59.2938 26.1176H57.882V25.4117H59.2938L59.4392 25.4152ZM32.4702 25.4117V26.1176H29.6467V25.4117H32.4702ZM38.1173 25.4117V26.1176H35.2938V25.4117H38.1173ZM43.7644 25.4117V26.1176H40.9408V25.4117H43.7644ZM49.4114 25.4117V26.1176H46.5879V25.4117H49.4114ZM55.0585 25.4117V26.1176H52.2349V25.4117H55.0585Z" fill="#C2C2C2"/>
<path d="M109.765 27.5294C110.739 27.5294 111.529 28.3195 111.529 29.2941C111.529 30.2687 110.739 31.0588 109.765 31.0588H73.0587C72.084 31.0588 71.2939 30.2687 71.2939 29.2941C71.2939 28.3195 72.084 27.5294 73.0587 27.5294H109.765Z" fill="#DDDDDD"/>
<path d="M109.765 38.8235C110.739 38.8235 111.529 39.6136 111.529 40.5882C111.529 41.5628 110.739 42.3529 109.765 42.3529H73.0587C72.084 42.3529 71.2939 41.5628 71.2939 40.5882C71.2939 39.6136 72.084 38.8235 73.0587 38.8235H109.765Z" fill="#DDDDDD"/>
<path d="M92.1175 48.7058C93.0921 48.7058 93.8822 49.4959 93.8822 50.4705C93.8822 51.4451 93.0921 52.2352 92.1175 52.2352H73.0587C72.084 52.2352 71.2939 51.4451 71.2939 50.4705C71.2939 49.4959 72.084 48.7058 73.0587 48.7058H92.1175Z" fill="#DDDDDD"/>
<path d="M109.765 48.7058C110.739 48.7058 111.53 49.4959 111.53 50.4705C111.53 51.4451 110.739 52.2352 109.765 52.2352H98.4708C97.4961 52.2352 96.7061 51.4451 96.7061 50.4705C96.7061 49.4959 97.4961 48.7058 98.4708 48.7058H109.765Z" fill="#DDDDDD"/>
<path d="M37.5828 52.5277C37.0315 53.079 36.1376 53.079 35.5863 52.5277C35.035 51.9763 35.035 51.0824 35.5863 50.5311L47.7073 38.4101C48.2587 37.8587 49.1526 37.8587 49.7039 38.4101C50.2552 38.9614 50.2552 39.8553 49.7039 40.4066L37.5828 52.5277Z" fill="#DDDDDD"/>
<path d="M47.8283 52.5277C48.3796 53.079 49.2735 53.079 49.8249 52.5277C50.3762 51.9763 50.3762 51.0824 49.8249 50.5311L37.7038 38.4101C37.1525 37.8587 36.2586 37.8587 35.7073 38.4101C35.1559 38.9614 35.1559 39.8553 35.7073 40.4066L47.8283 52.5277Z" fill="#DDDDDD"/>
<path d="M109.765 59.2942C110.739 59.2942 111.529 60.0843 111.529 61.0589C111.529 62.0335 110.739 62.8236 109.765 62.8236H73.0587C72.084 62.8236 71.2939 62.0335 71.2939 61.0589C71.2939 60.0843 72.084 59.2942 73.0587 59.2942H109.765Z" fill="#DDDDDD"/>
</svg>
