<svg width="24" height="24" viewBox="0 0 24 24" fill="none" xmlns="http://www.w3.org/2000/svg">
<g clip-path="url(#clip0_18945_508)">
<path d="M15.75 11.25H8.25C7.85218 11.25 7.47064 11.408 7.18934 11.6893C6.90804 11.9706 6.75 12.3522 6.75 12.75V17.25C6.75 17.6478 6.90804 18.0294 7.18934 18.3107C7.47064 18.592 7.85218 18.75 8.25 18.75H15.75C16.1478 18.75 16.5294 18.592 16.8107 18.3107C17.092 18.0294 17.25 17.6478 17.25 17.25V12.75C17.25 12.3522 17.092 11.9706 16.8107 11.6893C16.5294 11.408 16.1478 11.25 15.75 11.25Z" stroke="currentColor" stroke-linecap="round" stroke-linejoin="round"/>
<path d="M8.625 11.25V8.625C8.625 7.72989 8.98058 6.87145 9.61351 6.23851C10.2464 5.60558 11.1049 5.25 12 5.25C12.8951 5.25 13.7535 5.60558 14.3865 6.23851C15.0194 6.87145 15.375 7.72989 15.375 8.625V11.25" stroke="currentColor" stroke-linecap="round" stroke-linejoin="round"/>
<path d="M12 15.5625C11.8508 15.5625 11.7077 15.5032 11.6023 15.3977C11.4968 15.2923 11.4375 15.1492 11.4375 15C11.4375 14.8508 11.4968 14.7077 11.6023 14.6023C11.7077 14.4968 11.8508 14.4375 12 14.4375" stroke="currentColor" stroke-linecap="round" stroke-linejoin="round"/>
<path d="M12 15.5625C12.1492 15.5625 12.2923 15.5032 12.3977 15.3977C12.5032 15.2923 12.5625 15.1492 12.5625 15C12.5625 14.8508 12.5032 14.7077 12.3977 14.6023C12.2923 14.4968 12.1492 14.4375 12 14.4375" stroke="currentColor" stroke-linecap="round" stroke-linejoin="round"/>
</g>
<defs>
<clipPath id="clip0_18945_508">
<rect width="15" height="15" fill="white" transform="translate(4.5 4.5)"/>
</clipPath>
</defs>
</svg>
