<svg width="48" height="48" viewBox="0 0 48 48" fill="none" xmlns="http://www.w3.org/2000/svg">
<rect width="48" height="48" rx="12" fill="#62D8A3"/>
<path d="M9.22656 34.0366C10.5608 22.2397 15.1905 4.99913 27.1904 6.99947C32.8763 7.94733 36.9867 12.9757 38.4785 14.6586C39.5477 16.1776 40.6905 17.4999 41.1904 22.5004C41.5237 26.9999 39.9904 35.0988 33.1904 37.4995C32.0442 37.8985 29.5604 38.964 25.1904 39.0004C19.3666 39.049 20.6904 38.9991 16.1904 38.5874C12.1642 38.2189 11.2264 37.6252 10.2266 36.5366C9.85513 36.1322 9.22659 36.0364 9.22656 34.0366ZM25.6816 16.0493L23.8164 17.2612C23.2138 17.6601 22.7632 18.2416 22.3643 18.7446C21.995 19.2102 21.5981 19.806 20.834 21.1186C20.4873 21.7142 20.3056 22.3104 20.0977 22.7895C19.9098 23.2224 19.5889 24.2353 19.3955 24.9038C19.2717 25.3316 19.1241 25.8851 19.0439 26.3872C18.959 26.9193 18.948 27.7163 19.21 28.3657C19.3545 28.7238 19.7446 28.8851 20.1191 29.1245C20.6795 29.4825 21.3716 29.5402 21.7949 29.6596C22.3006 29.8022 22.7116 29.8438 23.9424 29.9311C26.5023 30.1127 27.0827 29.4619 27.3789 29.2778L27.3955 29.267C27.679 29.0911 27.9758 28.9078 28.7256 28.3305C29.2016 27.9641 29.6026 27.1206 29.9082 26.4545C30.1082 26.0187 30.2914 25.6649 30.4434 25.2739C30.6411 24.7651 31.1366 23.9746 31.2891 23.5659C31.417 23.2223 31.3926 22.5719 31.25 21.9633C31.0575 21.1423 30.6762 20.8311 30.4688 20.4868C30.2275 20.0864 30.0534 19.8092 29.6631 19.1645C29.3645 18.6714 29.3898 18.0092 29.1904 17.4995C28.7821 16.4557 28.3788 16.3627 28.0762 16.0756C27.7595 15.775 27.0102 15.8663 26.4248 15.8266L25.6816 16.0493Z" fill="white"/>
</svg>
