<svg width="225" height="68" viewBox="0 0 225 68" fill="none" xmlns="http://www.w3.org/2000/svg">
<path d="M8 22C8 15.3726 13.3726 10 20 10H44C50.6274 10 56 15.3726 56 22V46C56 52.6274 50.6274 58 44 58H20C13.3726 58 8 52.6274 8 46V22Z" fill="#00BB86"/>
<path fill-rule="evenodd" clip-rule="evenodd" d="M17.0685 40.5003C18.4027 28.7035 22.0686 14.9991 34.0685 16.9994C39.7541 17.9472 43.8646 22.9744 45.3566 24.6576C46.4258 26.1767 47.5685 27.4994 48.0685 32.5003C48.4017 36.9998 46.8683 45.0987 40.0685 47.4994C38.9221 47.8984 36.4383 48.9639 32.0685 49.0003C26.2448 49.0489 27.5684 48.999 23.0685 48.5872C17.469 48.5872 16.7354 43.1962 17.0685 40.5003ZM38.0685 29.4994C36.0527 25.1793 32.7041 25.3113 30.6944 27.2621C29.159 28.7525 26.0881 33.0592 26.088 38.3656C26.568 41.9999 33.5683 42.3336 35.5685 41.5003C38.5685 40.2514 41.5682 37 38.0685 29.4994Z" fill="white"/>
<path d="M71.9492 50C70.6081 50 69.5859 49.8307 68.8828 49.4922C68.1927 49.1536 67.724 48.6003 67.4766 47.832C67.2422 47.0638 67.125 46.0417 67.125 44.7656V27.2266C67.125 25.9245 67.2422 24.8958 67.4766 24.1406C67.724 23.3724 68.1927 22.8255 68.8828 22.5C69.5859 22.1615 70.6081 21.9922 71.9492 21.9922H77.9453C80.7448 21.9922 83.1927 22.4089 85.2891 23.2422C87.3984 24.0755 89.0391 25.4883 90.2109 27.4805C91.3828 29.4596 91.9688 32.181 91.9688 35.6445C91.9688 39.1081 91.3828 41.8945 90.2109 44.0039C89.0391 46.1003 87.3984 47.6237 85.2891 48.5742C83.1927 49.5247 80.7448 50 77.9453 50H71.9492ZM75.6602 27.1289C74.8008 27.1289 74.2148 27.3112 73.9023 27.6758C73.5898 28.0404 73.4336 28.6654 73.4336 29.5508V42.4414C73.4336 43.3138 73.5898 43.9388 73.9023 44.3164C74.2148 44.694 74.8008 44.8828 75.6602 44.8828H76.5586C79.3451 44.8828 81.5 44.1992 83.0234 42.832C84.5599 41.4648 85.3281 39.0951 85.3281 35.7227C85.3281 33.4701 84.9766 31.7253 84.2734 30.4883C83.5833 29.2383 82.5807 28.3659 81.2656 27.8711C79.9505 27.3763 78.3685 27.1289 76.5195 27.1289H75.6602ZM98.7484 50.4883C96.8344 50.4883 95.3109 49.9544 94.1781 48.8867C93.0583 47.806 92.4984 46.3216 92.4984 44.4336C92.4984 43.457 92.6742 42.5521 93.0258 41.7188C93.3904 40.8724 94.0154 40.1302 94.9008 39.4922C95.7992 38.8411 97.0492 38.3203 98.6508 37.9297C100.265 37.5391 102.323 37.3112 104.823 37.2461C104.823 36.0612 104.523 35.2083 103.924 34.6875C103.338 34.1667 102.453 33.9062 101.268 33.9062C100.2 33.9062 99.3279 34.0885 98.6508 34.4531C97.9737 34.8177 97.5505 35.0651 97.3813 35.1953C97.199 35.3516 96.9776 35.4102 96.7172 35.3711C96.3656 35.319 95.988 35.2279 95.5844 35.0977C95.1938 34.9674 94.7706 34.8177 94.3148 34.6484C94.2497 34.6224 94.1781 34.5833 94.1 34.5312C94.0219 34.4661 93.9763 34.375 93.9633 34.2578C93.9633 34.1927 93.9698 34.1146 93.9828 34.0234C93.9958 33.9193 94.0284 33.737 94.0805 33.4766C94.1326 33.2161 94.2107 32.8971 94.3148 32.5195C94.419 32.1289 94.5167 31.8294 94.6078 31.6211C94.725 31.3997 94.9203 31.1914 95.1938 30.9961C95.4151 30.8138 96.0857 30.5208 97.2055 30.1172C98.3253 29.7135 99.9464 29.5117 102.069 29.5117C107.915 29.5117 110.838 32.3568 110.838 38.0469V49.1016C110.838 49.349 110.767 49.5638 110.623 49.7461C110.493 49.9154 110.265 50 109.94 50H107.01C106.802 50 106.613 49.974 106.444 49.9219C106.288 49.8568 106.138 49.7396 105.995 49.5703L104.784 48.0078H104.647C104.048 48.8802 103.241 49.5117 102.225 49.9023C101.222 50.293 100.064 50.4883 98.7484 50.4883ZM100.897 45.957C102.095 45.957 103 45.651 103.612 45.0391C104.224 44.4271 104.614 43.7956 104.784 43.1445V40.9766C102.974 40.9766 101.613 41.1198 100.702 41.4062C99.8031 41.6797 99.2042 42.0443 98.9047 42.5C98.6052 42.9427 98.4555 43.4245 98.4555 43.9453C98.4555 44.7005 98.6898 45.2279 99.1586 45.5273C99.6273 45.8138 100.207 45.957 100.897 45.957ZM112.813 23.4375C112.813 23.2682 112.865 23.1185 112.97 22.9883C113.074 22.8581 113.21 22.6888 113.38 22.4805C113.744 22.0638 114.167 21.6276 114.649 21.1719C115.131 20.7031 115.619 20.2539 116.114 19.8242C116.427 19.5768 116.661 19.4531 116.817 19.4531C116.973 19.4531 117.214 19.5768 117.54 19.8242C118.595 20.7357 119.493 21.6211 120.235 22.4805C120.404 22.6758 120.541 22.8451 120.645 22.9883C120.763 23.1185 120.821 23.2682 120.821 23.4375C120.821 23.6068 120.763 23.7565 120.645 23.8867C120.541 24.0169 120.398 24.1927 120.216 24.4141C119.864 24.8177 119.454 25.2539 118.985 25.7227C118.516 26.1784 118.035 26.6146 117.54 27.0312C117.358 27.1875 117.214 27.2917 117.11 27.3438C117.006 27.3828 116.908 27.4023 116.817 27.4023C116.726 27.4023 116.628 27.3828 116.524 27.3438C116.433 27.2917 116.283 27.1875 116.075 27.0312C115.554 26.6146 115.066 26.1784 114.61 25.7227C114.154 25.2539 113.744 24.8047 113.38 24.375C113.21 24.1667 113.074 24.0039 112.97 23.8867C112.865 23.7565 112.813 23.6068 112.813 23.4375ZM119.884 48.9648C119.884 49.3555 119.799 49.6289 119.63 49.7852C119.473 49.9284 119.2 50 118.809 50H114.786C114.395 50 114.115 49.9284 113.946 49.7852C113.79 49.6289 113.712 49.3555 113.712 48.9648V31.0352C113.712 30.6445 113.79 30.3776 113.946 30.2344C114.115 30.0781 114.395 30 114.786 30H118.809C119.2 30 119.473 30.0781 119.63 30.2344C119.799 30.3776 119.884 30.6445 119.884 31.0352V48.9648ZM125.355 50.4102C125.081 50.5273 124.886 50.5859 124.769 50.5859C124.652 50.5859 124.528 50.5404 124.398 50.4492C124.098 50.2409 123.753 49.7331 123.362 48.9258C122.985 48.1055 122.796 46.849 122.796 45.1562V22.5391C122.796 22.2266 122.861 21.9857 122.991 21.8164C123.538 21.1003 124.339 20.3255 125.394 19.4922C125.576 19.362 125.739 19.2969 125.882 19.2969C126.051 19.2969 126.214 19.362 126.37 19.4922C126.93 19.9219 127.399 20.3255 127.777 20.7031C128.167 21.0807 128.499 21.4518 128.773 21.8164C128.903 21.9857 128.968 22.2266 128.968 22.5391V43.9648C128.968 44.8242 129.04 45.5599 129.183 46.1719C129.326 46.7708 129.495 47.2526 129.691 47.6172C129.912 48.0469 129.827 48.3529 129.437 48.5352L125.355 50.4102ZM132.545 59.3945C132.063 59.3945 131.698 59.3424 131.451 59.2383C131.203 59.1471 130.995 59.0299 130.826 58.8867C130.487 58.5612 130.123 58.1055 129.732 57.5195C129.641 57.3763 129.543 57.207 129.439 57.0117C129.335 56.8294 129.283 56.6732 129.283 56.543C129.283 56.3997 129.315 56.2695 129.38 56.1523C129.446 56.0352 129.524 55.9245 129.615 55.8203C129.823 55.5469 130.077 55.2604 130.377 54.9609C130.676 54.6745 130.93 54.4466 131.138 54.2773C131.282 54.1602 131.399 54.082 131.49 54.043C131.581 54.0169 131.659 54.0039 131.724 54.0039C131.789 54.0039 131.887 54.0169 132.017 54.043C132.147 54.069 132.343 54.082 132.603 54.082C133.502 54.082 134.439 53.7891 135.416 53.2031C136.392 52.6172 137.356 51.5169 138.306 49.9023C137.317 48.9909 136.34 47.8516 135.377 46.4844C134.426 45.1042 133.567 43.6133 132.798 42.0117C132.03 40.3971 131.412 38.7891 130.943 37.1875C130.487 35.5859 130.259 34.1081 130.259 32.7539C130.259 32.4674 130.331 32.2396 130.474 32.0703C131.073 31.3281 131.926 30.5534 133.033 29.7461C133.228 29.6159 133.404 29.5508 133.56 29.5508C133.729 29.5508 133.905 29.6159 134.088 29.7461C134.686 30.1758 135.188 30.5794 135.591 30.957C136.008 31.3346 136.36 31.7057 136.646 32.0703C136.789 32.2396 136.861 32.4805 136.861 32.793V32.7148C136.861 33.7435 136.985 34.8307 137.232 35.9766C137.479 37.1224 137.818 38.2422 138.248 39.3359C138.677 40.4167 139.159 41.3997 139.693 42.2852C140.227 43.1576 140.78 43.8542 141.353 44.375H141.451C141.711 43.8802 141.998 43.1706 142.31 42.2461C142.636 41.3086 142.942 40.2734 143.228 39.1406C143.515 37.9948 143.749 36.862 143.931 35.7422C144.114 34.6094 144.205 33.6068 144.205 32.7344V32.793C144.205 32.4805 144.27 32.2396 144.4 32.0703C144.699 31.7057 145.051 31.3346 145.455 30.957C145.858 30.5794 146.347 30.1758 146.92 29.7461C147.102 29.6159 147.271 29.5508 147.427 29.5508C147.61 29.5508 147.779 29.6159 147.935 29.7461C148.521 30.1758 149.016 30.5794 149.42 30.957C149.823 31.3346 150.168 31.7057 150.455 32.0703C150.585 32.2396 150.65 32.474 150.65 32.7734C150.637 33.9583 150.409 35.5078 149.966 37.4219C149.524 39.3229 148.879 41.3867 148.033 43.6133C147.186 45.8398 146.158 48.0208 144.947 50.1562C143.137 53.3724 141.184 55.7161 139.088 57.1875C136.991 58.6589 134.81 59.3945 132.545 59.3945ZM150.65 32.7344V32.793V32.7734C150.65 32.7604 150.65 32.7474 150.65 32.7344ZM130.259 32.7344V32.7539V32.793V32.7344ZM151.043 45.6836C151.043 45.5013 151.102 45.3451 151.219 45.2148C151.336 45.0716 151.486 44.8828 151.668 44.6484C152.072 44.1927 152.534 43.7174 153.055 43.2227C153.589 42.7148 154.122 42.2266 154.656 41.7578C154.995 41.4844 155.249 41.3477 155.418 41.3477C155.574 41.3477 155.835 41.4844 156.199 41.7578C157.332 42.7214 158.315 43.6849 159.148 44.6484C159.331 44.8698 159.48 45.0521 159.598 45.1953C159.715 45.3385 159.773 45.5013 159.773 45.6836C159.773 45.8659 159.708 46.0286 159.578 46.1719C159.461 46.3151 159.311 46.5104 159.129 46.7578C158.738 47.2005 158.283 47.6693 157.762 48.1641C157.254 48.6589 156.733 49.1406 156.199 49.6094C155.861 49.8828 155.6 50.0195 155.418 50.0195C155.262 50.0195 154.995 49.8828 154.617 49.6094C154.044 49.1406 153.51 48.6589 153.016 48.1641C152.521 47.6562 152.072 47.168 151.668 46.6992C151.486 46.4779 151.336 46.3021 151.219 46.1719C151.102 46.0286 151.043 45.8659 151.043 45.6836ZM151.043 33.5156C151.043 33.3333 151.102 33.1771 151.219 33.0469C151.336 32.9036 151.486 32.7148 151.668 32.4805C152.072 32.0247 152.534 31.5495 153.055 31.0547C153.589 30.5469 154.122 30.0586 154.656 29.5898C154.995 29.3164 155.249 29.1797 155.418 29.1797C155.574 29.1797 155.835 29.3164 156.199 29.5898C157.332 30.5534 158.315 31.5169 159.148 32.4805C159.331 32.7018 159.48 32.8841 159.598 33.0273C159.715 33.1706 159.773 33.3333 159.773 33.5156C159.773 33.6979 159.708 33.8607 159.578 34.0039C159.461 34.1471 159.311 34.3424 159.129 34.5898C158.738 35.0326 158.283 35.5013 157.762 35.9961C157.254 36.4909 156.733 36.9727 156.199 37.4414C155.861 37.7148 155.6 37.8516 155.418 37.8516C155.262 37.8516 154.995 37.7148 154.617 37.4414C154.044 36.9727 153.51 36.4909 153.016 35.9961C152.521 35.4883 152.072 35 151.668 34.5312C151.486 34.3099 151.336 34.1341 151.219 34.0039C151.102 33.8607 151.043 33.6979 151.043 33.5156ZM166.612 50C165.271 50 164.248 49.8307 163.545 49.4922C162.855 49.1536 162.386 48.6003 162.139 47.832C161.905 47.0638 161.787 46.0417 161.787 44.7656V27.2266C161.787 25.9245 161.905 24.8958 162.139 24.1406C162.386 23.3724 162.855 22.8255 163.545 22.5C164.248 22.1615 165.271 21.9922 166.612 21.9922H172.608C175.407 21.9922 177.855 22.4089 179.952 23.2422C182.061 24.0755 183.702 25.4883 184.873 27.4805C186.045 29.4596 186.631 32.181 186.631 35.6445C186.631 39.1081 186.045 41.8945 184.873 44.0039C183.702 46.1003 182.061 47.6237 179.952 48.5742C177.855 49.5247 175.407 50 172.608 50H166.612ZM170.323 27.1289C169.463 27.1289 168.877 27.3112 168.565 27.6758C168.252 28.0404 168.096 28.6654 168.096 29.5508V42.4414C168.096 43.3138 168.252 43.9388 168.565 44.3164C168.877 44.694 169.463 44.8828 170.323 44.8828H171.221C174.008 44.8828 176.162 44.1992 177.686 42.832C179.222 41.4648 179.991 39.0951 179.991 35.7227C179.991 33.4701 179.639 31.7253 178.936 30.4883C178.246 29.2383 177.243 28.3659 175.928 27.8711C174.613 27.3763 173.031 27.1289 171.182 27.1289H170.323ZM201.126 50.4883C198.417 50.4883 196.061 49.9674 194.055 48.9258C192.05 47.8841 190.494 46.3151 189.387 44.2188C188.294 42.1224 187.747 39.5052 187.747 36.3672C187.747 31.3802 188.964 27.6628 191.399 25.2148C193.834 22.7539 197.226 21.5234 201.575 21.5234C205.651 21.5234 208.873 22.7279 211.243 25.1367C213.613 27.5326 214.798 31.0872 214.798 35.8008C214.798 39.1341 214.244 41.888 213.137 44.0625C212.031 46.224 210.455 47.8385 208.411 48.9062C206.367 49.9609 203.938 50.4883 201.126 50.4883ZM201.243 45.2148C203.587 45.2148 205.325 44.375 206.458 42.6953C207.591 41.0156 208.157 38.8346 208.157 36.1523C208.157 33.0404 207.623 30.7031 206.555 29.1406C205.488 27.5781 203.769 26.7969 201.399 26.7969C196.725 26.7969 194.387 29.8763 194.387 36.0352C194.387 38.7826 194.947 41.0026 196.067 42.6953C197.2 44.375 198.925 45.2148 201.243 45.2148Z" fill="#333333"/>
</svg>
