<svg width="34" height="58" viewBox="0 0 34 58" fill="none" xmlns="http://www.w3.org/2000/svg">
<path d="M16.4658 0.0265673C25.5595 0.0119398 32.9434 7.37219 32.9581 16.4658C32.9684 22.8648 29.3266 28.4159 23.9991 31.1496C23.14 31.5904 22.5425 32.4447 22.544 33.4104C22.5461 34.708 21.4958 35.7617 20.1982 35.7638L12.8486 35.7756C11.5509 35.7777 10.4973 34.7274 10.4952 33.4298C10.4936 32.4641 9.89339 31.6118 9.03281 31.1737C3.69656 28.4572 0.0368447 22.9179 0.0265333 16.5189C0.0119637 7.42524 7.37212 0.041221 16.4658 0.0265673Z" fill="#FFEF74"/>
<path d="M9.29848 38.2914C9.29624 36.9051 10.4182 35.7796 11.8044 35.7773L21.2421 35.7621C22.6283 35.7599 23.7539 36.8818 23.7561 38.2681L23.7566 38.5693C23.763 42.5616 20.5318 45.8033 16.5394 45.8098C12.5471 45.8162 9.3054 42.5849 9.29896 38.5926L9.29848 38.2914Z" fill="#2DBF9E"/>
<path d="M11.6709 16.0978C13.2144 18.5718 15.6975 22.6374 16.504 24.7244" stroke="#FFC43A" stroke-width="8" stroke-linecap="round"/>
<path d="M21.3108 16.2841C19.7753 18.7631 17.3053 22.8366 16.5055 24.9263L16.5191 33.3599" stroke="#FFC43A" stroke-width="8" stroke-linecap="round"/>
</svg>
