<svg width="70" height="57" viewBox="0 0 70 57" fill="none" xmlns="http://www.w3.org/2000/svg">
<path d="M8.34375 40C8.34375 31.7157 14.9102 25 23.0104 25H51.6771C59.7773 25 66.3438 31.7157 66.3438 40C66.3438 48.2843 59.7773 55 51.6771 55H23.0104C14.9102 55 8.34375 48.2843 8.34375 40Z" fill="#AFEFD1"/>
<path d="M45.1169 2.30664C50.9784 2.30681 55.7303 7.05853 55.7303 12.92V30.1668C55.7303 36.0283 50.9784 40.7801 45.1169 40.7802L22.0206 40.7802C21.2907 42.3628 21.1439 44.1609 21.6229 45.8511C21.7562 46.322 21.2477 46.7152 20.8254 46.4678L19.6743 45.7922C17.6 44.5753 15.8794 42.8474 14.6727 40.7802H12.6134C6.75178 40.7802 2 36.0284 2 30.1668L2 12.92C2 7.05842 6.75178 2.30664 12.6134 2.30664L45.1169 2.30664Z" fill="white"/>
<path d="M15.4345 39.4535L15.8187 40.1117C16.8513 41.8806 18.3003 43.3742 20.0423 44.4629C19.9401 43.0126 20.2026 41.5539 20.8157 40.2244L21.1714 39.4535L45.1169 39.4535V40.7802L22.0206 40.7802C21.2907 42.3628 21.1439 44.1609 21.6229 45.8511C21.7562 46.322 21.2477 46.7152 20.8254 46.4678L19.6743 45.7922C17.6 44.5753 15.8794 42.8474 14.6727 40.7802H12.6134V39.4535H15.4345ZM54.4037 30.1668V12.92C54.4037 7.87142 50.3747 3.76385 45.3566 3.63655L45.1169 3.63332L12.6134 3.63332C7.56462 3.63332 3.45705 7.66222 3.32991 12.6804L3.32668 12.92L3.32668 30.1668C3.32668 35.2957 7.48448 39.4535 12.6134 39.4535V40.7802C6.75178 40.7802 2 36.0284 2 30.1668L2 12.92C2 7.05842 6.75178 2.30664 12.6134 2.30664L45.1169 2.30664C50.9784 2.30681 55.7303 7.05853 55.7303 12.92V30.1668C55.7303 36.0283 50.9784 40.7801 45.1169 40.7802V39.4535C50.1656 39.4534 54.2733 35.4245 54.4004 30.4065L54.4037 30.1668Z" fill="#E9E9E9"/>
<path d="M36.6859 20C37.0492 20 37.3438 20.2239 37.3438 20.5C37.3438 20.7761 37.0492 21 36.6859 21H13.0016C12.6383 21 12.3438 20.7761 12.3438 20.5C12.3438 20.2239 12.6383 20 13.0016 20H36.6859Z" fill="#CCCCCC"/>
<path d="M36.6859 29C37.0492 29 37.3438 29.2239 37.3438 29.5C37.3438 29.7761 37.0492 30 36.6859 30H13.0016C12.6383 30 12.3438 29.7761 12.3438 29.5C12.3438 29.2239 12.6383 29 13.0016 29H36.6859Z" fill="#CCCCCC"/>
<path d="M29.6771 24C30.0453 24 30.3438 24.2239 30.3438 24.5C30.3438 24.7761 30.0453 25 29.6771 25H13.0104C12.6422 25 12.3438 24.7761 12.3438 24.5C12.3438 24.2239 12.6422 24 13.0104 24H29.6771Z" fill="#CCCCCC"/>
<path d="M36.6295 24C37.024 24 37.3438 24.2239 37.3438 24.5C37.3438 24.7761 37.024 25 36.6295 25H33.058C32.6635 25 32.3438 24.7761 32.3438 24.5C32.3438 24.2239 32.6635 24 33.058 24H36.6295Z" fill="#CCCCCC"/>
</svg>
