<svg width="22" height="35" viewBox="0 0 22 35" fill="none" xmlns="http://www.w3.org/2000/svg">
<path d="M6.98438 24C7.03125 18.0469 8.71875 16.2188 11.6719 14.3906C13.6875 13.125 15.1875 11.5312 15.1875 9.1875C15.1875 6.5625 13.1719 4.875 10.5938 4.875C8.25 4.875 6 6.375 5.85938 9.51562H0C0.140625 3.23438 4.875 0 10.6406 0C16.9688 0 21.3281 3.51562 21.3281 9.09375C21.3281 12.8906 19.4062 15.375 16.3594 17.2031C13.6406 18.8438 12.5156 20.4844 12.4688 24V24.4219H6.98438V24ZM9.89062 34.7812C7.875 34.7812 6.23438 33.1406 6.23438 31.125C6.23438 29.1562 7.875 27.5156 9.89062 27.5156C11.8125 27.5156 13.5 29.1562 13.5 31.125C13.5 33.1406 11.8125 34.7812 9.89062 34.7812Z" fill="#00BB86"/>
</svg>
