<svg width="11" height="11" viewBox="0 0 11 11" fill="none" xmlns="http://www.w3.org/2000/svg">
<path d="M3.33111 1.38035C3.93087 -0.46007 6.5345 -0.46007 7.13426 1.38035L7.24126 1.70869C7.4283 2.28264 7.86456 2.7414 8.42839 2.95704L9.1797 3.24439C10.8938 3.89995 10.8938 6.3249 9.1797 6.98046L8.42839 7.26781C7.86456 7.48345 7.4283 7.94221 7.24126 8.51616L7.13426 8.8445C6.5345 10.6849 3.93087 10.6849 3.33111 8.8445L3.22411 8.51616C3.03707 7.94221 2.6008 7.48345 2.03698 7.26781L1.28567 6.98046C-0.428407 6.3249 -0.428406 3.89995 1.28567 3.24439L2.03698 2.95704C2.6008 2.7414 3.03707 2.28264 3.22411 1.70869L3.33111 1.38035Z" fill="#8BEFCE"/>
</svg>
