<svg width="40" height="34" viewBox="0 0 40 34" fill="none" xmlns="http://www.w3.org/2000/svg">
<path d="M32.7359 12.9107C33.2052 12.8409 33.5594 12.935 33.8383 13.0927C34.5449 13.4922 34.7817 14.2547 34.7172 14.6127C34.4817 15.9176 33.485 17.5385 31.9325 18.7773C30.3547 20.0362 28.8503 20.4023 27.9215 20.2347C25.8701 19.8646 24.7052 19.3282 24.1655 18.8654C23.9436 18.6751 23.8794 18.5416 23.8514 18.4614C23.822 18.3772 23.7624 18.1464 23.8497 17.6623C24.1053 16.2454 24.6029 15.56 24.9923 15.2566C25.312 15.0076 25.9956 14.6696 27.5272 14.9459L29.1744 15.2431L30.44 14.1467C31.4652 13.2591 32.2524 12.9827 32.7359 12.9107Z" stroke="#BBCCD8" stroke-width="7"/>
<ellipse cx="16.0425" cy="26.2729" rx="15.5489" ry="4.17165" transform="rotate(10.2274 16.0425 26.2729)" fill="#BBCCD8"/>
<path d="M5.80068 4.00122L33.0454 8.91675L31.9343 15.0748C30.5769 22.5982 23.3776 27.5968 15.8542 26.2394C8.3308 24.882 3.33225 17.6827 4.68963 10.1593L5.80068 4.00122Z" fill="#DDE5EB"/>
<ellipse cx="19.3901" cy="6.64581" rx="13.8423" ry="3.98203" transform="rotate(10.2274 19.3901 6.64581)" fill="#F0F5F6"/>
<path d="M19.6534 5.72963C25.3372 6.75515 30.026 8.63643 31.8113 10.4278C29.5124 11.4822 24.4618 11.6064 18.7781 10.581C13.0934 9.55533 8.40314 7.67412 6.6184 5.88247C8.91678 4.82753 13.9687 4.70399 19.6534 5.72963Z" fill="#5B3A11"/>
</svg>
