<svg width="46" height="52" viewBox="0 0 46 52" fill="none" xmlns="http://www.w3.org/2000/svg">
<path d="M15.5974 5.27668C24.2115 2.36253 33.5573 6.98339 36.4715 15.5974C38.5222 21.6589 36.8409 28.0817 32.6636 32.3717C31.9899 33.0635 31.6961 34.0638 32.0055 34.9785C32.4214 36.2077 31.762 37.5413 30.5328 37.9572L23.5708 40.3124C22.3416 40.7283 21.008 40.0689 20.5921 38.8397C20.2827 37.925 19.4419 37.3086 18.4866 37.1678C12.5626 36.2952 7.32731 32.2123 5.27668 26.1508C2.36258 17.5367 6.98333 8.19087 15.5974 5.27668Z" fill="#FFEF74"/>
<path d="M16.1785 22.0377C18.4304 23.8903 22.0805 26.9516 23.5105 28.6724" stroke="#FFC43A" stroke-width="8" stroke-linecap="round"/>
<path d="M25.3745 19.14C24.7099 21.9793 23.6681 26.6279 23.5765 28.8635L26.2791 36.8523" stroke="#FFC43A" stroke-width="8" stroke-linecap="round"/>
<path d="M20.2365 41.5457C19.7923 40.2326 20.4966 38.808 21.8098 38.3637L30.7497 35.3393C32.0628 34.8951 33.4874 35.5995 33.9317 36.9126L34.0282 37.1979C35.3076 40.9797 33.279 45.0827 29.4972 46.3621C25.7154 47.6415 21.6124 45.6129 20.333 41.8311L20.2365 41.5457Z" fill="#2DBF9E"/>
</svg>
