<svg width="20" height="20" viewBox="0 0 20 20" fill="none" xmlns="http://www.w3.org/2000/svg">
<path d="M8.05289 14.1667H11.947M9.99996 2.5V3.33333M15.3033 4.6967L14.714 5.28596M17.5 9.99996H16.6667M3.33333 9.99996H2.5M5.28591 5.28595L4.69665 4.6967M7.05368 12.9463C5.42649 11.3191 5.42649 8.68093 7.05368 7.05374C8.68086 5.42656 11.319 5.42656 12.9462 7.05374C14.5734 8.68093 14.5734 11.3191 12.9462 12.9463L12.4903 13.4022C11.9629 13.9296 11.6666 14.6449 11.6666 15.3908V15.8333C11.6666 16.7538 10.9204 17.5 9.99996 17.5C9.07948 17.5 8.33329 16.7538 8.33329 15.8333V15.3908C8.33329 14.6449 8.037 13.9296 7.50959 13.4022L7.05368 12.9463Z" stroke="#4A4A4A" stroke-linecap="round" stroke-linejoin="round"/>
</svg>
