<svg width="70" height="60" viewBox="0 0 70 60" fill="none" xmlns="http://www.w3.org/2000/svg">
<path d="M8.34375 43C8.34375 34.7157 14.9102 28 23.0104 28H51.6771C59.7773 28 66.3438 34.7157 66.3438 43C66.3438 51.2843 59.7773 58 51.6771 58H23.0104C14.9102 58 8.34375 51.2843 8.34375 43Z" fill="#AFEFD1"/>
<path d="M45.1169 5.30664C50.9784 5.30681 55.7304 10.0585 55.7304 15.92V33.1668C55.7304 39.0283 50.9784 43.7801 45.1169 43.7802L22.0206 43.7802C21.2907 45.3628 21.1439 47.1609 21.6229 48.8511C21.7562 49.322 21.2477 49.7152 20.8254 49.4678L19.6743 48.7922C17.6 47.5753 15.8794 45.8474 14.6727 43.7802H12.6134C6.75178 43.7802 2 39.0284 2 33.1668L2 15.92C2 10.0584 6.75178 5.30664 12.6134 5.30664L45.1169 5.30664Z" fill="white"/>
<path d="M15.4345 42.4535L15.8187 43.1117C16.8513 44.8806 18.3003 46.3742 20.0423 47.4629C19.9401 46.0126 20.2026 44.5539 20.8157 43.2244L21.1714 42.4535L45.1169 42.4535V43.7802L22.0206 43.7802C21.2907 45.3628 21.1439 47.1609 21.6229 48.8511C21.7562 49.322 21.2477 49.7152 20.8254 49.4678L19.6743 48.7922C17.6 47.5753 15.8794 45.8474 14.6727 43.7802H12.6134V42.4535H15.4345ZM54.4037 33.1668V15.92C54.4037 10.8714 50.3747 6.76385 45.3566 6.63655L45.1169 6.63332L12.6134 6.63332C7.56462 6.63332 3.45705 10.6622 3.32991 15.6804L3.32668 15.92L3.32668 33.1668C3.32668 38.2957 7.48448 42.4535 12.6134 42.4535V43.7802C6.75178 43.7802 2 39.0284 2 33.1668L2 15.92C2 10.0584 6.75178 5.30664 12.6134 5.30664L45.1169 5.30664C50.9784 5.30681 55.7303 10.0585 55.7303 15.92V33.1668C55.7303 39.0283 50.9784 43.7801 45.1169 43.7802V42.4535C50.1656 42.4534 54.2733 38.4245 54.4004 33.4065L54.4037 33.1668Z" fill="#E9E9E9"/>
<path d="M34.3421 29C34.7055 29 35 29.2239 35 29.5C35 29.7761 34.7055 30 34.3421 30H10.6579C10.2945 30 10 29.7761 10 29.5C10 29.2239 10.2945 29 10.6579 29H34.3421Z" fill="#CCCCCC"/>
<path d="M27.3333 33C27.7015 33 28 33.2239 28 33.5C28 33.7761 27.7015 34 27.3333 34H10.6667C10.2985 34 10 33.7761 10 33.5C10 33.2239 10.2985 33 10.6667 33H27.3333Z" fill="#CCCCCC"/>
<path d="M52.8623 5.45764L54.8068 7.3138L43.0384 18.5473L41.0938 16.6912L52.8623 5.45764Z" fill="#F8F8F8"/>
<path d="M42.9271 16.625H44.2333L53.1937 8.07187L51.8875 6.825L42.9271 15.3781V16.625ZM42.0104 18.375C41.7507 18.375 41.533 18.2911 41.3573 18.1234C41.1816 17.9557 41.0938 17.7479 41.0938 17.5V15.3781C41.0938 15.1448 41.1396 14.9224 41.2313 14.7109C41.3229 14.4995 41.4528 14.3135 41.6208 14.1531L53.1937 3.12813C53.3771 2.96771 53.5795 2.84375 53.801 2.75625C54.0226 2.66875 54.2556 2.625 54.5 2.625C54.7444 2.625 54.9812 2.66875 55.2104 2.75625C55.4396 2.84375 55.6382 2.975 55.8062 3.15L57.0667 4.375C57.25 4.53542 57.3837 4.725 57.4677 4.94375C57.5517 5.1625 57.5938 5.38125 57.5938 5.6C57.5938 5.83333 57.5517 6.05573 57.4677 6.26719C57.3837 6.47865 57.25 6.67188 57.0667 6.84688L45.5167 17.8719C45.3486 18.0323 45.1538 18.1562 44.9323 18.2437C44.7108 18.3312 44.4778 18.375 44.2333 18.375H42.0104ZM52.5292 7.45937L51.8875 6.825L53.1937 8.07187L52.5292 7.45937Z" fill="#79E2C1"/>
<path d="M14.3525 14.2461C14.3901 14.1748 14.4919 14.1747 14.5293 14.2461L15.8213 16.7109C15.9806 17.0146 16.2723 17.2265 16.6104 17.2842L19.3535 17.751C19.433 17.7645 19.4646 17.8622 19.4082 17.9199L17.4639 19.9102C17.2241 20.1556 17.1124 20.4984 17.1621 20.8379L17.5654 23.5908C17.5771 23.6706 17.4942 23.7311 17.4219 23.6953L14.9287 22.4609C14.6211 22.3087 14.2597 22.3087 13.9521 22.4609L11.459 23.6953C11.3867 23.731 11.3037 23.6706 11.3154 23.5908L11.7197 20.8379C11.7694 20.4986 11.6575 20.1555 11.418 19.9102L9.47266 17.9199C9.41639 17.8623 9.44806 17.7647 9.52734 17.751L12.2705 17.2842C12.6088 17.2266 12.9012 17.0148 13.0605 16.7109L14.3525 14.2461Z" fill="#E3FBF1" stroke="#79E2C1"/>
<path d="M26.9111 14.3018C26.9479 14.2279 27.053 14.2279 27.0898 14.3018L28.2812 16.6943C28.4363 17.0057 28.7298 17.2258 29.0723 17.2871L31.6504 17.749C31.7279 17.7631 31.7595 17.8571 31.7061 17.915L29.8418 19.9229C29.6171 20.1651 29.513 20.496 29.5586 20.8232L29.9414 23.5674C29.9526 23.6479 29.868 23.7075 29.7959 23.6699L27.5088 22.4785C27.1902 22.3125 26.8108 22.3125 26.4922 22.4785L24.2051 23.6699C24.133 23.7075 24.0484 23.6479 24.0596 23.5674L24.4424 20.8232C24.488 20.496 24.3839 20.1651 24.1592 19.9229L22.2949 17.915C22.2415 17.8571 22.273 17.7631 22.3506 17.749L24.9287 17.2871C25.2711 17.2258 25.5647 17.0057 25.7197 16.6943L26.9111 14.3018Z" fill="#E3FBF1" stroke="#79E2C1"/>
</svg>
