<svg width="20" height="20" viewBox="0 0 20 20" fill="none" xmlns="http://www.w3.org/2000/svg">
<path d="M8.875 16C8.75649 16.0006 8.64062 15.965 8.54287 15.898C8.44512 15.831 8.37015 15.7357 8.32797 15.625L7.39422 13.1969C7.37531 13.1479 7.34638 13.1035 7.30929 13.0664C7.2722 13.0293 7.22776 13.0004 7.17883 12.9815L4.75001 12.047C4.63937 12.0046 4.54421 11.9296 4.47708 11.8319C4.40996 11.7342 4.37402 11.6185 4.37402 11.5C4.37402 11.3815 4.40996 11.2658 4.47708 11.1681C4.54421 11.0704 4.63937 10.9954 4.75001 10.953L7.17813 10.0192C7.22706 10.0003 7.27149 9.97138 7.30859 9.93429C7.34568 9.8972 7.37461 9.85276 7.39352 9.80383L8.32797 7.37501C8.37043 7.26437 8.44545 7.16921 8.54311 7.10208C8.64077 7.03496 8.75649 6.99902 8.875 6.99902C8.99351 6.99902 9.10923 7.03496 9.20689 7.10208C9.30456 7.16921 9.37957 7.26437 9.42203 7.37501L10.3558 9.80313C10.3747 9.85206 10.4036 9.89649 10.4407 9.93359C10.4778 9.97068 10.5222 9.99961 10.5712 10.0185L12.9852 10.9473C13.1004 10.99 13.1996 11.0671 13.2693 11.1682C13.339 11.2693 13.376 11.3894 13.375 11.5122C13.3732 11.6286 13.3365 11.7419 13.2697 11.8372C13.2028 11.9326 13.1089 12.0057 13 12.047L10.5719 12.9808C10.5229 12.9997 10.4785 13.0286 10.4414 13.0657C10.4043 13.1028 10.3754 13.1472 10.3565 13.1962L9.42203 15.625C9.37986 15.7357 9.30489 15.831 9.20714 15.898C9.10939 15.965 8.99351 16.0006 8.875 16Z" fill="currentColor"/>
<path d="M6.06245 8.12505C5.99297 8.12505 5.92513 8.10399 5.86785 8.06466C5.81057 8.02534 5.76655 7.96958 5.74159 7.90474L5.34644 6.87724C5.33787 6.85477 5.32466 6.83436 5.30765 6.81736C5.29065 6.80035 5.27024 6.78713 5.24777 6.77857L4.22027 6.38341C4.15543 6.35845 4.09969 6.31442 4.06037 6.25715C4.02105 6.19987 4 6.13203 4 6.06255C4 5.99308 4.02105 5.92524 4.06037 5.86796C4.09969 5.81068 4.15543 5.76666 4.22027 5.74169L5.24777 5.34654C5.27022 5.33794 5.2906 5.3247 5.3076 5.3077C5.3246 5.2907 5.33783 5.27032 5.34644 5.24787L5.73808 4.22951C5.76016 4.16956 5.79817 4.11676 5.84801 4.07678C5.89786 4.03681 5.95765 4.01118 6.02097 4.00264C6.09699 3.99339 6.17392 4.0098 6.23955 4.04924C6.30519 4.08868 6.35579 4.14891 6.38331 4.22037L6.77847 5.24787C6.78707 5.27032 6.8003 5.2907 6.8173 5.3077C6.8343 5.3247 6.85469 5.33794 6.87714 5.34654L7.90464 5.74169C7.96947 5.76666 8.02522 5.81068 8.06454 5.86796C8.10386 5.92524 8.1249 5.99308 8.1249 6.06255C8.1249 6.13203 8.10386 6.19987 8.06454 6.25715C8.02522 6.31442 7.96947 6.35845 7.90464 6.38341L6.87714 6.77857C6.85467 6.78713 6.83426 6.80035 6.81725 6.81736C6.80025 6.83436 6.78703 6.85477 6.77847 6.87724L6.38331 7.90474C6.35835 7.96958 6.31433 8.02534 6.25706 8.06466C6.19978 8.10399 6.13193 8.12505 6.06245 8.12505Z" fill="currentColor"/>
<path d="M13.3747 10C13.2989 9.99999 13.2249 9.97699 13.1624 9.93407C13.1 9.89114 13.052 9.83029 13.0248 9.75954L12.4895 8.36806C12.48 8.34354 12.4656 8.32127 12.447 8.3027C12.4284 8.28413 12.4062 8.26966 12.3816 8.26025L10.9902 7.72493C10.9195 7.69769 10.8587 7.64968 10.8158 7.58722C10.7729 7.52476 10.75 7.45077 10.75 7.37501C10.75 7.29925 10.7729 7.22527 10.8158 7.16281C10.8587 7.10034 10.9195 7.05233 10.9902 7.02509L12.3816 6.48978C12.4062 6.48036 12.4284 6.4659 12.447 6.44733C12.4656 6.42876 12.48 6.40649 12.4895 6.38197L13.0208 5.00033C13.045 4.93499 13.0866 4.87745 13.1409 4.83383C13.1953 4.79021 13.2604 4.76214 13.3295 4.7526C13.4124 4.74255 13.4963 4.76051 13.5679 4.8036C13.6395 4.8467 13.6947 4.91248 13.7246 4.99049L14.2599 6.38197C14.2693 6.40649 14.2838 6.42876 14.3024 6.44733C14.321 6.4659 14.3432 6.48036 14.3677 6.48978L15.7592 7.02509C15.8299 7.05233 15.8907 7.10034 15.9336 7.16281C15.9764 7.22527 15.9994 7.29925 15.9994 7.37501C15.9994 7.45077 15.9764 7.52476 15.9336 7.58722C15.8907 7.64968 15.8299 7.69769 15.7592 7.72493L14.3677 8.26025C14.3432 8.26966 14.321 8.28413 14.3024 8.3027C14.2838 8.32127 14.2693 8.34354 14.2599 8.36806L13.7246 9.75954C13.6974 9.83029 13.6494 9.89114 13.587 9.93407C13.5245 9.97699 13.4505 9.99999 13.3747 10Z" fill="currentColor"/>
</svg>
