<svg width="53" height="55" viewBox="0 0 53 55" fill="none" xmlns="http://www.w3.org/2000/svg">
<g opacity="0.1">
<path fill-rule="evenodd" clip-rule="evenodd" d="M10.0716 35.1356C11.4869 22.622 15.3759 8.08589 28.1048 10.2078C34.1358 11.2132 38.4959 16.5454 40.0784 18.3309C41.2127 19.9422 42.425 21.3454 42.9554 26.6502C43.3088 31.423 41.6819 40.0139 34.4691 42.5604C33.2531 42.9837 30.6185 44.1134 25.9837 44.1522C19.8062 44.2037 21.2099 44.1514 16.4368 43.7147C10.4969 43.7147 9.71823 37.9951 10.0716 35.1356ZM32.348 23.4666C30.2098 18.8841 26.6575 19.0234 24.5257 21.0926C22.8971 22.6734 19.6401 27.2422 19.64 32.8709C20.1491 36.7258 27.5737 37.0799 29.6956 36.1961C32.8778 34.8713 36.0602 31.4228 32.348 23.4666Z" fill="white"/>
</g>
</svg>
