<svg width="80" height="80" viewBox="0 0 80 80" fill="none" xmlns="http://www.w3.org/2000/svg">
<g filter="url(#filter0_d_18571_50683)">
<circle cx="40" cy="32.5" r="32.5" fill="#C5F1D9"/>
<path d="M35.5781 39.5938C35.625 33.6406 37.3125 31.8125 40.2656 29.9844C42.2812 28.7188 43.7812 27.125 43.7812 24.7812C43.7812 22.1562 41.7656 20.4688 39.1875 20.4688C36.8438 20.4688 34.5938 21.9688 34.4531 25.1094H28.5938C28.7344 18.8281 33.4688 15.5938 39.2344 15.5938C45.5625 15.5938 49.9219 19.1094 49.9219 24.6875C49.9219 28.4844 48 30.9688 44.9531 32.7969C42.2344 34.4375 41.1094 36.0781 41.0625 39.5938V40.0156H35.5781V39.5938ZM38.4844 50.375C36.4688 50.375 34.8281 48.7344 34.8281 46.7188C34.8281 44.75 36.4688 43.1094 38.4844 43.1094C40.4062 43.1094 42.0938 44.75 42.0938 46.7188C42.0938 48.7344 40.4062 50.375 38.4844 50.375Z" fill="#00BB86"/>
</g>
<defs>
<filter id="filter0_d_18571_50683" x="-4" y="0" width="88" height="88" filterUnits="userSpaceOnUse" color-interpolation-filters="sRGB">
<feFlood flood-opacity="0" result="BackgroundImageFix"/>
<feColorMatrix in="SourceAlpha" type="matrix" values="0 0 0 0 0 0 0 0 0 0 0 0 0 0 0 0 0 0 127 0" result="hardAlpha"/>
<feOffset dy="4"/>
<feGaussianBlur stdDeviation="2"/>
<feComposite in2="hardAlpha" operator="out"/>
<feColorMatrix type="matrix" values="0 0 0 0 0 0 0 0 0 0 0 0 0 0 0 0 0 0 0.04 0"/>
<feBlend mode="normal" in2="BackgroundImageFix" result="effect1_dropShadow_18571_50683"/>
<feBlend mode="normal" in="SourceGraphic" in2="effect1_dropShadow_18571_50683" result="shape"/>
</filter>
</defs>
</svg>
